<svg xmlns="http://www.w3.org/2000/svg" width="48" height="48" viewBox="0 0 48 48">
  <path fill="#d82c20" d="M42.858,20.25c0-1.262-1.446-2.31-3.577-3.088c0.02-0.17,0.031-0.342,0.031-0.514c0-1.262-1.446-2.31-3.577-3.088c0.02-0.17,0.031-0.342,0.031-0.514c0-2.24-4.294-4.046-9.592-4.046c-5.298,0-9.592,1.806-9.592,4.046c0,0.172,0.011,0.344,0.031,0.514c-2.131,0.778-3.577,1.826-3.577,3.088c0,0.172,0.011,0.344,0.031,0.514c-2.131,0.778-3.577,1.826-3.577,3.088c0,2.24,4.294,4.046,9.592,4.046s9.592-1.806,9.592-4.046c2.131-0.778,3.577-1.826,3.577-3.088c2.131-0.778,3.577-1.826,3.577-3.088C42.858,20.592,42.847,20.42,42.858,20.25z"/>
  <path fill="#a41e22" d="M35.281,23.338c-2.131,0.778-3.577,1.826-3.577,3.088c0,2.24,4.294,4.046,9.592,4.046s9.592-1.806,9.592-4.046c0-1.262-1.446-2.31-3.577-3.088c0.02-0.17,0.031-0.342,0.031-0.514c0-1.262-1.446-2.31-3.577-3.088c0.02-0.17,0.031-0.342,0.031-0.514c0-2.24-4.294-4.046-9.592-4.046c-0.896,0-1.769,0.046-2.608,0.133c3.964,0.469,6.984,2.045,6.984,3.913c0,0.172-0.011,0.344-0.031,0.514c1.896,0.692,3.146,1.582,3.146,2.574c0,0.172-0.011,0.344-0.031,0.514c1.896,0.692,3.146,1.582,3.146,2.574C38.427,21.756,37.177,22.646,35.281,23.338z"/>
  <ellipse fill="#fff" cx="26" cy="13" rx="9.5" ry="4"/>
  <ellipse fill="#d82c20" cx="26" cy="16.5" rx="9.5" ry="4"/>
  <ellipse fill="#fff" cx="26" cy="16.5" rx="9.5" ry="2.5"/>
  <ellipse fill="#d82c20" cx="26" cy="20" rx="9.5" ry="4"/>
  <ellipse fill="#fff" cx="26" cy="20" rx="9.5" ry="2.5"/>
  <path fill="#751c21" d="M26,17.75c-5.247,0-9.5-0.895-9.5-2v3.5c0,1.105,4.253,2,9.5,2s9.5-0.895,9.5-2V17.75z"/>
  <path fill="#751c21" d="M26,21.25c-5.247,0-9.5-0.895-9.5-2V23c0,1.105,4.253,2,9.5,2s9.5-0.895,9.5-2V19.25z"/>
</svg>